<svg width="24" height="21" viewBox="0 0 24 21" fill="none" xmlns="http://www.w3.org/2000/svg">
<path d="M15.9 4.7999C15.9 6.95381 14.1539 8.6999 12 8.6999C9.84609 8.6999 8.1 6.95381 8.1 4.7999C8.1 2.64599 9.84609 0.899902 12 0.899902C14.1539 0.899902 15.9 2.64599 15.9 4.7999Z" fill="#36E55E"/>
<path d="M22.4 7.3999C22.4 8.83584 21.2359 9.9999 19.8 9.9999C18.3641 9.9999 17.2 8.83584 17.2 7.3999C17.2 5.96396 18.3641 4.7999 19.8 4.7999C21.2359 4.7999 22.4 5.96396 22.4 7.3999Z" fill="#36E55E"/>
<path d="M17.2 16.4999C17.2 13.628 14.8719 11.2999 12 11.2999C9.12812 11.2999 6.8 13.628 6.8 16.4999V20.3999H17.2V16.4999Z" fill="#36E55E"/>
<path d="M6.8 7.3999C6.8 8.83584 5.63594 9.9999 4.2 9.9999C2.76406 9.9999 1.6 8.83584 1.6 7.3999C1.6 5.96396 2.76406 4.7999 4.2 4.7999C5.63594 4.7999 6.8 5.96396 6.8 7.3999Z" fill="#36E55E"/>
<path d="M19.8 20.3999V16.4999C19.8 15.1295 19.4466 13.8417 18.826 12.7225C19.1373 12.6425 19.4637 12.5999 19.8 12.5999C21.9539 12.5999 23.7 14.346 23.7 16.4999V20.3999H19.8Z" fill="#36E55E"/>
<path d="M5.17404 12.7225C4.5534 13.8417 4.2 15.1295 4.2 16.4999V20.3999H0.299999V16.4999C0.299999 14.346 2.04609 12.5999 4.2 12.5999C4.53632 12.5999 4.8627 12.6425 5.17404 12.7225Z" fill="#36E55E"/>
</svg>
