<svg width="106" height="106" viewBox="0 0 106 106" fill="none" xmlns="http://www.w3.org/2000/svg">
<path d="M45.0969 39.7145C45.9173 39.1676 46.9308 38.6787 48.1 38.3003L48.1 47.2997C46.9308 46.9213 45.9173 46.4324 45.0969 45.8855C43.1671 44.5989 42.8 43.4037 42.8 42.8C42.8 42.1963 43.1671 41.0011 45.0969 39.7145Z" fill="#36E55E"/>
<path d="M58.7001 68.4997L58.7001 59.5004C59.8693 59.8787 60.8827 60.3676 61.7032 60.9145C63.633 62.2011 64.0001 63.3964 64.0001 64C64.0001 64.6037 63.633 65.7989 61.7032 67.0855C60.8828 67.6324 59.8693 68.1213 58.7001 68.4997Z" fill="#36E55E"/>
<path fill-rule="evenodd" clip-rule="evenodd" d="M53.4 95.8C76.8169 95.8 95.8 76.8169 95.8 53.4C95.8 29.9831 76.8169 11 53.4 11C29.9831 11 11 29.9831 11 53.4C11 76.8169 29.9831 95.8 53.4 95.8ZM58.7 26.9C58.7 23.9729 56.3271 21.6 53.4 21.6C50.4729 21.6 48.1 23.9729 48.1 26.9V27.3876C44.8055 28.0063 41.7584 29.2006 39.2171 30.8948C35.3922 33.4447 32.2 37.5495 32.2 42.8C32.2 48.0505 35.3922 52.1553 39.2171 54.7052C41.7584 56.3994 44.8056 57.5938 48.1001 58.2124L48.1001 68.501C46.0278 67.8281 44.4916 66.8191 43.6303 65.8265C41.712 63.6156 38.3646 63.3785 36.1537 65.2969C33.9429 67.2153 33.7058 70.5626 35.6241 72.7735C38.6053 76.2092 43.1156 78.4734 48.1 79.4105L48.1 79.8999C48.0999 82.827 50.4728 85.1999 53.3999 85.2C56.327 85.2001 58.6999 82.8272 58.7 79.9001L58.7 79.4125C61.9945 78.7938 65.0417 77.5994 67.583 75.9052C71.4079 73.3553 74.6001 69.2505 74.6001 64C74.6001 58.7494 71.4078 54.6447 67.5829 52.0948C65.0416 50.4006 61.9945 49.2063 58.7 48.5876L58.7 38.299C60.7723 38.9718 62.3085 39.9809 63.1698 40.9735C65.0881 43.1843 68.4355 43.4215 70.6464 41.5031C72.8572 39.5847 73.0943 36.2373 71.176 34.0265C68.1947 30.5907 63.6844 28.3265 58.7 27.3895V26.9Z" fill="#36E55E"/>
</svg>
