<svg width="22" height="22" viewBox="0 0 22 22" fill="none" xmlns="http://www.w3.org/2000/svg">
<path fill-rule="evenodd" clip-rule="evenodd" d="M12.936 2.12232C12.4433 0.0926901 9.55675 0.0926892 9.06402 2.12232C8.74572 3.43344 7.24359 4.05564 6.09142 3.35361C4.30784 2.26686 2.26677 4.30793 3.35352 6.09151C4.05555 7.24368 3.43335 8.74581 2.12223 9.06411C0.0925976 9.55684 0.0925985 12.4434 2.12223 12.9361C3.43335 13.2544 4.05555 14.7565 3.35352 15.9087C2.26677 17.6923 4.30784 19.7333 6.09142 18.6466C7.24359 17.9446 8.74572 18.5668 9.06402 19.8779C9.55675 21.9075 12.4433 21.9075 12.936 19.8779C13.2543 18.5668 14.7564 17.9446 15.9086 18.6466C17.6922 19.7333 19.7332 17.6923 18.6465 15.9087C17.9445 14.7565 18.5667 13.2544 19.8778 12.9361C21.9074 12.4434 21.9074 9.55684 19.8778 9.06411C18.5667 8.74581 17.9445 7.24368 18.6465 6.09151C19.7332 4.30793 17.6922 2.26686 15.9086 3.35361C14.7564 4.05564 13.2543 3.43344 12.936 2.12232ZM11 14.9001C13.1539 14.9001 14.9 13.154 14.9 11.0001C14.9 8.84619 13.1539 7.1001 11 7.1001C8.8461 7.1001 7.10001 8.84619 7.10001 11.0001C7.10001 13.154 8.8461 14.9001 11 14.9001Z" fill="#36E55E"/>
</svg>
