 <svg width="22" height="14" viewBox="0 0 22 14" fill="none" xmlns="http://www.w3.org/2000/svg">
                <path
                  fill-rule="evenodd"
                  clip-rule="evenodd"
                  d="M13.6 3.1C12.882 3.1 12.3 2.51797 12.3 1.8C12.3 1.08203 12.882 0.5 13.6 0.5H20.1C20.818 0.5 21.4 1.08203 21.4 1.8V8.3C21.4 9.01797 20.818 9.6 20.1 9.6C19.382 9.6 18.8 9.01797 18.8 8.3V4.93848L13.2192 10.5192C12.7116 11.0269 11.8884 11.0269 11.3808 10.5192L8.40001 7.53848L2.81924 13.1192C2.31156 13.6269 1.48845 13.6269 0.980767 13.1192C0.473086 12.6116 0.473086 11.7884 0.980767 11.2808L7.48077 4.78076C7.98845 4.27308 8.81156 4.27308 9.31924 4.78076L12.3 7.76152L16.9615 3.1H13.6Z"
                  fill="#36E55E"
                />
              </svg>