<svg width="106" height="106" viewBox="0 0 106 106" fill="none" xmlns="http://www.w3.org/2000/svg">
<path fill-rule="evenodd" clip-rule="evenodd" d="M11.4803 26.4942C27.4242 26.2779 41.951 20.1948 53 10.3057C64.049 20.1948 78.5758 26.2779 94.5196 26.4942C95.0986 29.9433 95.4 33.4866 95.4 37.1002C95.4 64.7919 77.702 88.3502 53 97.081C28.2979 88.3502 10.6 64.7919 10.6 37.1002C10.6 33.4866 10.9014 29.9433 11.4803 26.4942ZM72.6476 46.1477C74.7174 44.0779 74.7174 40.7221 72.6476 38.6524C70.5779 36.5826 67.2221 36.5826 65.1523 38.6524L47.7 56.1047L40.8476 49.2524C38.7779 47.1826 35.4221 47.1826 33.3523 49.2524C31.2825 51.3221 31.2825 54.6779 33.3523 56.7477L43.9523 67.3477C46.0221 69.4175 49.3779 69.4175 51.4476 67.3477L72.6476 46.1477Z" fill="#36E55E"/>
</svg>
