<svg width="22" height="22" viewBox="0 0 22 22" fill="none" xmlns="http://www.w3.org/2000/svg">
<path d="M11.5121 0.705209C11.1851 0.565061 10.8149 0.565061 10.4879 0.705209L1.38791 4.60521C0.909922 4.81006 0.600006 5.28006 0.600006 5.8001C0.600006 6.32013 0.909922 6.79013 1.38791 6.99499L4.82549 8.46824C4.95049 8.3266 5.10719 8.21125 5.28791 8.1338L10.4879 5.90523C11.1478 5.6224 11.9121 5.9281 12.1949 6.58802C12.4777 7.24794 12.172 8.01218 11.5121 8.295L7.96669 9.81446L10.4879 10.895C10.8149 11.0351 11.1851 11.0351 11.5121 10.895L20.6121 6.99499C21.0901 6.79013 21.4 6.32013 21.4 5.8001C21.4 5.28006 21.0901 4.81006 20.6121 4.60521L11.5121 0.705209Z" fill="#36E55E"/>
<path d="M2.30306 10.2158L4.50001 11.1574V16.4895C4.0544 16.3885 3.59918 16.3129 3.13593 16.2643C2.52522 16.2002 2.04261 15.7176 1.97858 15.1069C1.92661 14.6113 1.90001 14.1085 1.90001 13.5999C1.90001 12.4344 2.03964 11.301 2.30306 10.2158Z" fill="#36E55E"/>
<path d="M10.0899 19.5444C9.21521 18.6868 8.20718 17.966 7.10001 17.4157V12.2717L9.46372 13.2847C10.4448 13.7051 11.5553 13.7051 12.5363 13.2847L19.6969 10.2158C19.9604 11.301 20.1 12.4344 20.1 13.5999C20.1 14.1085 20.0734 14.6113 20.0214 15.1069C19.9574 15.7176 19.4748 16.2002 18.8641 16.2643C16.1694 16.5468 13.7461 17.7444 11.9101 19.5444C11.4046 20.0399 10.5955 20.0399 10.0899 19.5444Z" fill="#36E55E"/>
<path d="M5.80001 21.4001C6.51798 21.4001 7.10001 20.818 7.10001 20.1001V17.4157C6.28277 17.0096 5.41153 16.6963 4.50001 16.4895V20.1001C4.50001 20.818 5.08204 21.4001 5.80001 21.4001Z" fill="#36E55E"/>
</svg>
