<svg width="106" height="106" viewBox="0 0 106 106" fill="none" xmlns="http://www.w3.org/2000/svg">
<path fill-rule="evenodd" clip-rule="evenodd" d="M31.8 10.6C25.9458 10.6 21.2 15.3458 21.2 21.2V84.8C21.2 90.6542 25.9458 95.4 31.8 95.4H74.2C80.0542 95.4 84.8 90.6542 84.8 84.8V21.2C84.8 15.3458 80.0542 10.6 74.2 10.6H31.8ZM37.1 21.2C34.1729 21.2 31.8 23.5729 31.8 26.5C31.8 29.4271 34.1729 31.8 37.1 31.8H68.9C71.8271 31.8 74.2 29.4271 74.2 26.5C74.2 23.5729 71.8271 21.2 68.9 21.2H37.1ZM68.9 58.3C71.8271 58.3 74.2 60.6729 74.2 63.6V79.5C74.2 82.4271 71.8271 84.8 68.9 84.8C65.9729 84.8 63.6 82.4271 63.6 79.5V63.6C63.6 60.6729 65.9729 58.3 68.9 58.3ZM53 74.2C50.0729 74.2 47.7 76.5729 47.7 79.5C47.7 82.4271 50.0729 84.8 53 84.8H53.053C55.9801 84.8 58.353 82.4271 58.353 79.5C58.353 76.5729 55.9801 74.2 53.053 74.2H53ZM31.8 79.5C31.8 76.5729 34.1729 74.2 37.1 74.2H37.153C40.0801 74.2 42.453 76.5729 42.453 79.5C42.453 82.4271 40.0801 84.8 37.153 84.8H37.1C34.1729 84.8 31.8 82.4271 31.8 79.5ZM37.1 58.3C34.1729 58.3 31.8 60.6729 31.8 63.6C31.8 66.5271 34.1729 68.9 37.1 68.9H37.153C40.0801 68.9 42.453 66.5271 42.453 63.6C42.453 60.6729 40.0801 58.3 37.153 58.3H37.1ZM47.7 63.6C47.7 60.6729 50.0729 58.3 53 58.3H53.053C55.9801 58.3 58.353 60.6729 58.353 63.6C58.353 66.5271 55.9801 68.9 53.053 68.9H53C50.0729 68.9 47.7 66.5271 47.7 63.6ZM68.9 42.4C65.9729 42.4 63.6 44.7729 63.6 47.7C63.6 50.6271 65.9729 53 68.9 53H68.953C71.8801 53 74.253 50.6271 74.253 47.7C74.253 44.7729 71.8801 42.4 68.953 42.4H68.9ZM47.7 47.7C47.7 44.7729 50.0729 42.4 53 42.4H53.053C55.9801 42.4 58.353 44.7729 58.353 47.7C58.353 50.6271 55.9801 53 53.053 53H53C50.0729 53 47.7 50.6271 47.7 47.7ZM37.1 42.4C34.1729 42.4 31.8 44.7729 31.8 47.7C31.8 50.6271 34.1729 53 37.1 53H37.153C40.0801 53 42.453 50.6271 42.453 47.7C42.453 44.7729 40.0801 42.4 37.153 42.4H37.1Z" fill="#36E55E"/>
</svg>
